<svg xmlns="http://www.w3.org/2000/svg" viewBox="0 0 260 260">
  <defs>
    <linearGradient id="bg" x1="0" x2="1" y1="0" y2="1">
      <stop offset="0%" stop-color="#3A6EEA" />
      <stop offset="100%" stop-color="#2C57D3" />
    </linearGradient>
  </defs>
  <circle cx="130" cy="130" r="120" fill="url(#bg)" />
  <path d="M85 85c0-20 15-35 35-35s35 15 35 35" fill="none" stroke="#FFFFFF" stroke-width="12" stroke-linecap="round" />
  <path d="M120 85c0-10 10-18 20-18s20 8 20 18" fill="none" stroke="#FFFFFF" stroke-width="10" stroke-linecap="round" />
  <path d="M95 100c0-15 12-28 26-28s26 13 26 28" fill="#FFFFFF" opacity="0.05" />
  <path d="M88 98c0 0 24 18 34 18s34-18 34-18" fill="none" stroke="#FFFFFF" stroke-width="10" stroke-linecap="round" />
  <path d="M90 105c0 0 2 55 3 60 1 4 3 9 8 9h70c5 0 7-5 8-9 1-5 3-60 3-60" fill="none" stroke="#FFFFFF" stroke-width="12" stroke-linejoin="round" />
  <path d="M98 104l20 0c9 0 14 8 18 15l8 14c2 3 6 3 8 0l8-14c4-7 9-15 18-15h20" fill="none" stroke="#FFFFFF" stroke-width="12" stroke-linecap="round" />
  <path d="M105 110c4 8 18 22 25 22s21-14 25-22" fill="#FFFFFF" opacity="0.15" />
  <text x="130" y="220" font-family="Arial, Helvetica, sans-serif" font-size="28" fill="#FFFFFF" text-anchor="middle" font-weight="700">SICLEAN</text>
</svg>